<?xml version="1.0" standalone="no"?>
<!DOCTYPE svg PUBLIC "-//W3C//DTD SVG 20010904//EN"
 "http://www.w3.org/TR/2001/REC-SVG-20010904/DTD/svg10.dtd">
<svg version="1.0" xmlns="http://www.w3.org/2000/svg"
 width="3043.000000pt" height="3043.000000pt" viewBox="0 0 3043.000000 3043.000000"
 preserveAspectRatio="xMidYMid meet">
<metadata>
Created by potrace 1.14, written by Peter Selinger 2001-2017
</metadata>
<g transform="translate(0.000000,3043.000000) scale(0.100000,-0.100000)"
fill="#000000" stroke="none">
<path d="M14635 30153 c-642 -21 -1292 -79 -1790 -159 -412 -66 -629 -105
-850 -154 -71 -16 -184 -41 -250 -55 -66 -15 -145 -33 -175 -41 -73 -20 -73
-20 -160 -38 -41 -9 -82 -19 -90 -23 -8 -3 -19 -7 -25 -8 -5 -2 -37 -10 -70
-19 -33 -10 -85 -24 -115 -32 -30 -8 -77 -21 -105 -29 -27 -7 -66 -19 -85 -25
-19 -6 -46 -13 -60 -16 -14 -2 -43 -11 -65 -18 -22 -8 -114 -37 -205 -66 -255
-81 -372 -120 -405 -135 -16 -7 -64 -25 -105 -38 -167 -56 -327 -117 -408
-153 -29 -13 -56 -24 -60 -24 -6 0 -122 -45 -177 -69 -11 -5 -40 -17 -65 -26
-25 -10 -77 -33 -117 -52 -40 -18 -75 -33 -78 -33 -4 0 -32 -12 -63 -26 -31
-14 -73 -33 -92 -41 -34 -15 -69 -31 -235 -108 -101 -47 -554 -273 -660 -329
-44 -24 -115 -61 -159 -84 -43 -23 -91 -51 -106 -62 -15 -11 -31 -20 -35 -20
-4 0 -44 -22 -88 -48 -45 -26 -89 -51 -98 -54 -8 -3 -42 -23 -75 -44 -32 -21
-72 -45 -89 -54 -42 -22 -79 -44 -85 -50 -7 -7 -42 -29 -60 -37 -8 -4 -47 -27
-86 -52 -40 -25 -107 -68 -150 -96 -103 -65 -132 -84 -185 -120 -24 -16 -51
-34 -61 -40 -9 -5 -37 -25 -63 -42 -25 -18 -50 -33 -55 -33 -4 0 -10 -4 -12
-8 -1 -4 -32 -27 -68 -50 -36 -23 -72 -48 -80 -54 -33 -29 -90 -68 -99 -68 -5
0 -11 -4 -13 -8 -1 -5 -25 -23 -53 -42 -27 -19 -56 -40 -65 -47 -8 -7 -71 -54
-140 -106 -205 -153 -343 -259 -375 -289 -16 -15 -33 -28 -36 -28 -4 0 -24
-16 -45 -35 -22 -19 -42 -35 -45 -35 -3 0 -22 -15 -41 -32 -20 -18 -44 -40
-54 -48 -42 -33 -129 -106 -145 -120 -8 -8 -33 -30 -55 -48 -72 -61 -124 -107
-167 -147 -24 -22 -72 -65 -106 -95 -35 -30 -81 -71 -101 -90 -20 -19 -85 -80
-144 -135 -134 -125 -542 -533 -656 -656 -47 -51 -107 -116 -135 -145 -46 -49
-86 -94 -190 -212 -22 -25 -52 -59 -68 -75 -15 -16 -27 -31 -27 -34 0 -2 -12
-17 -27 -32 -16 -16 -41 -45 -58 -66 -16 -21 -41 -51 -55 -66 -14 -15 -36 -42
-49 -60 -14 -17 -37 -45 -53 -61 -15 -17 -28 -32 -28 -34 0 -3 -26 -35 -55
-68 -5 -6 -23 -29 -39 -51 -17 -22 -33 -42 -36 -45 -3 -3 -24 -30 -48 -60 -23
-30 -45 -59 -50 -65 -4 -5 -27 -36 -51 -67 -24 -32 -47 -58 -51 -58 -4 0 -12
-10 -17 -22 -6 -13 -53 -80 -105 -149 -51 -70 -100 -137 -108 -149 -8 -12 -21
-28 -27 -36 -7 -7 -13 -17 -13 -23 0 -6 -4 -11 -10 -11 -5 0 -10 -7 -10 -15 0
-8 -3 -15 -8 -15 -4 0 -37 -44 -72 -97 -36 -54 -67 -100 -70 -103 -3 -3 -28
-39 -55 -80 -28 -41 -53 -79 -58 -85 -4 -5 -33 -50 -64 -100 -32 -49 -60 -92
-64 -95 -3 -3 -18 -26 -32 -52 -26 -47 -48 -83 -116 -188 -50 -77 -71 -112
-77 -132 -4 -10 -10 -18 -14 -18 -5 0 -12 -10 -16 -22 -3 -13 -25 -52 -48 -88
-23 -36 -50 -81 -59 -100 -10 -19 -26 -48 -36 -65 -15 -26 -60 -106 -95 -170
-6 -11 -14 -22 -17 -25 -3 -3 -23 -41 -46 -85 -38 -75 -120 -232 -156 -300 -9
-16 -36 -70 -60 -120 -24 -49 -51 -103 -60 -120 -9 -16 -37 -75 -63 -130 -26
-55 -64 -138 -86 -185 -22 -47 -44 -94 -48 -105 -5 -11 -27 -60 -50 -108 -22
-49 -40 -93 -40 -99 0 -5 -16 -42 -35 -81 -19 -39 -35 -74 -35 -79 0 -4 -11
-31 -24 -60 -13 -29 -38 -91 -56 -138 -17 -47 -37 -98 -45 -115 -7 -16 -18
-42 -24 -57 -6 -16 -16 -38 -21 -50 -6 -13 -14 -36 -19 -53 -8 -26 -54 -154
-97 -270 -50 -133 -88 -246 -139 -410 -20 -66 -41 -129 -45 -140 -9 -20 -73
-232 -90 -295 -26 -97 -64 -231 -80 -285 -19 -60 -79 -307 -120 -485 -11 -52
-30 -131 -40 -175 -11 -44 -22 -91 -25 -105 -3 -14 -8 -38 -11 -55 -38 -186
-97 -517 -119 -660 -9 -60 -20 -128 -25 -150 -13 -59 -66 -480 -89 -710 -27
-266 -48 -555 -62 -864 -15 -342 -6 -1358 15 -1656 37 -520 91 -1017 141
-1305 8 -47 26 -157 40 -245 14 -88 30 -180 35 -205 5 -25 23 -119 40 -210 17
-91 37 -187 44 -215 7 -27 19 -77 26 -110 28 -130 119 -512 127 -535 3 -8 8
-24 10 -35 2 -11 7 -31 12 -45 5 -14 14 -43 20 -65 6 -22 34 -121 61 -220 28
-99 66 -227 85 -285 105 -319 176 -531 195 -580 12 -30 28 -75 36 -100 8 -25
19 -54 24 -65 5 -11 17 -42 26 -70 16 -51 39 -106 55 -137 5 -10 9 -22 9 -28
0 -6 9 -32 21 -58 12 -26 24 -56 29 -67 4 -11 12 -32 19 -47 10 -26 17 -43 40
-100 13 -33 36 -86 60 -140 12 -26 21 -49 21 -52 0 -3 11 -29 24 -58 38 -83
77 -170 94 -208 73 -167 445 -914 462 -930 4 -3 16 -27 29 -55 13 -27 33 -63
45 -80 12 -16 30 -48 41 -70 10 -22 35 -69 57 -104 21 -34 38 -65 38 -67 0 -3
12 -23 27 -47 15 -23 33 -51 39 -62 30 -54 56 -98 93 -160 23 -37 41 -71 41
-75 0 -5 3 -10 8 -12 8 -3 52 -64 52 -73 0 -7 93 -153 119 -187 12 -14 21 -31
21 -37 0 -6 5 -11 10 -11 6 0 10 -5 10 -11 0 -6 47 -79 103 -162 57 -84 124
-181 148 -217 24 -36 50 -69 56 -73 7 -4 13 -15 13 -22 0 -8 3 -15 8 -15 4 0
16 -16 27 -36 10 -19 28 -46 39 -58 12 -13 44 -56 71 -95 28 -39 62 -86 77
-104 15 -17 28 -35 28 -38 0 -6 27 -40 53 -69 8 -8 52 -64 97 -125 46 -60 86
-112 89 -115 15 -13 131 -160 131 -166 0 -4 8 -14 18 -23 19 -17 119 -134 167
-195 17 -21 44 -52 60 -70 17 -17 57 -63 90 -100 33 -38 67 -76 75 -86 8 -9
40 -45 70 -79 55 -63 73 -83 258 -276 226 -237 479 -487 725 -715 32 -30 81
-76 108 -102 27 -27 53 -48 57 -48 5 0 23 -15 39 -32 17 -18 46 -46 65 -61 75
-64 144 -123 163 -142 12 -11 37 -32 56 -46 19 -15 48 -40 66 -55 17 -16 54
-47 82 -69 28 -22 51 -43 51 -47 0 -5 6 -8 14 -8 8 0 16 -4 18 -8 2 -4 40 -36
86 -71 45 -35 82 -67 82 -72 0 -4 8 -10 18 -13 9 -3 29 -16 44 -28 14 -13 39
-32 54 -43 44 -32 89 -69 92 -77 2 -5 8 -8 13 -8 9 0 84 -54 99 -70 3 -3 21
-17 40 -30 19 -13 37 -27 40 -30 3 -4 28 -21 55 -40 28 -19 52 -36 55 -40 23
-28 810 -550 830 -550 5 0 10 -4 10 -9 0 -5 8 -12 18 -15 20 -8 47 -23 89 -53
17 -13 33 -23 36 -23 3 0 29 -16 58 -35 30 -19 57 -35 61 -35 4 0 48 -25 96
-55 49 -30 94 -55 100 -55 7 0 12 -4 12 -9 0 -5 8 -11 18 -14 9 -4 53 -27 97
-52 44 -25 94 -52 110 -60 17 -9 66 -36 110 -60 44 -25 91 -50 105 -56 14 -6
32 -15 40 -20 25 -14 582 -290 625 -309 22 -10 74 -34 115 -53 41 -19 98 -45
125 -57 28 -12 64 -27 80 -35 17 -7 41 -17 55 -23 23 -10 65 -27 150 -65 113
-49 180 -75 180 -70 0 3 6 1 13 -4 6 -5 39 -20 72 -32 71 -27 88 -34 135 -54
71 -30 340 -127 353 -127 7 0 17 -4 22 -8 6 -4 28 -14 50 -21 22 -7 49 -16 60
-21 29 -13 152 -53 290 -95 66 -20 145 -45 175 -56 61 -20 132 -42 230 -69 36
-10 92 -26 125 -35 33 -9 94 -26 135 -37 88 -22 90 -23 110 -31 16 -7 314 -80
395 -97 56 -12 114 -25 178 -40 297 -68 589 -121 1067 -194 422 -65 956 -115
1457 -137 311 -13 1609 -7 1868 10 419 27 922 75 1160 111 33 5 152 23 264 39
112 17 242 38 290 46 47 9 122 22 167 30 139 25 476 96 669 141 61 14 148 35
195 45 47 10 114 28 150 39 36 11 92 27 125 36 33 8 83 22 110 29 44 12 80 22
230 65 122 35 294 88 315 97 8 3 17 7 20 7 23 5 291 94 350 116 41 16 118 43
170 60 52 18 109 38 125 45 17 7 57 23 90 35 33 12 74 28 90 35 17 7 91 37
165 66 74 28 154 60 178 70 23 10 45 18 48 18 3 0 15 6 27 14 12 7 54 26 92
42 81 32 133 55 345 152 103 48 385 183 475 229 239 121 310 159 315 165 3 3
28 17 55 29 28 12 52 25 55 29 3 3 19 13 35 21 17 8 32 17 35 20 3 3 34 20 70
39 36 19 79 43 95 53 17 10 41 23 55 29 14 6 39 21 57 35 17 13 35 24 38 24 7
0 259 151 338 202 23 15 48 31 56 35 12 5 125 78 191 123 8 5 78 51 154 101
126 82 482 330 524 364 9 7 69 52 132 99 63 47 125 93 136 103 12 10 34 27 49
38 16 11 34 26 41 33 7 6 15 12 19 12 4 0 12 6 19 13 24 23 122 101 190 151
14 10 41 32 60 50 19 17 40 36 48 41 36 27 157 129 184 155 16 17 35 30 42 30
7 0 12 4 12 8 0 4 33 36 73 71 39 35 96 84 125 110 29 25 72 64 96 86 23 22
83 78 134 125 139 128 852 845 852 857 0 3 21 27 48 53 26 27 65 70 87 96 22
26 57 65 78 86 20 22 37 42 37 45 0 3 16 21 35 40 19 19 35 36 35 39 0 3 12
18 28 34 15 15 41 45 57 66 56 70 105 129 127 154 13 14 39 46 58 70 19 25 40
52 47 60 41 51 213 272 237 305 17 22 33 42 36 45 3 3 17 21 30 40 28 40 39
54 60 79 8 9 31 40 50 69 19 29 38 52 43 52 4 0 7 5 7 11 0 6 9 23 21 37 11
15 47 65 80 112 32 47 62 90 67 95 4 6 52 75 105 155 54 80 101 150 105 156
23 33 33 51 38 67 4 9 10 17 15 17 5 0 9 7 9 15 0 8 5 15 10 15 6 0 10 4 10
10 0 5 16 32 35 59 19 26 35 53 35 58 0 5 9 18 19 30 10 11 30 40 43 64 13 24
41 70 61 101 21 32 42 68 47 80 6 13 19 37 30 53 11 17 23 37 27 45 3 8 9 17
12 20 8 7 39 59 57 95 8 17 26 48 39 70 14 22 37 63 51 90 14 28 36 68 49 90
13 22 36 63 50 90 15 28 51 95 80 150 108 202 322 640 418 855 54 120 69 154
87 199 10 25 34 81 54 124 20 43 36 83 36 87 0 5 9 29 19 52 26 57 43 100 71
173 35 93 37 97 59 153 12 28 35 91 52 140 16 48 34 96 39 107 5 11 16 43 25
70 10 28 21 59 26 70 11 26 114 337 130 395 15 54 14 52 22 70 14 37 47 145
77 250 17 63 35 126 40 140 5 14 20 70 35 125 14 55 33 123 41 150 8 28 16 59
19 70 2 11 18 74 34 140 16 67 37 152 45 190 8 39 35 163 60 278 44 203 99
493 130 692 52 335 69 452 91 640 68 592 86 899 92 1610 6 747 -7 1112 -63
1680 -18 193 -60 537 -74 620 -6 33 -26 159 -45 280 -37 236 -89 522 -129 700
-13 61 -35 162 -49 225 -27 123 -95 396 -122 495 -9 33 -23 83 -30 110 -7 28
-24 91 -38 140 -14 50 -33 117 -42 150 -9 33 -29 98 -45 145 -15 47 -47 146
-70 220 -59 190 -80 251 -95 285 -7 17 -27 71 -44 120 -68 201 -93 272 -108
305 -8 19 -19 45 -24 58 -5 12 -14 34 -20 50 -7 15 -15 36 -19 47 -4 11 -12
31 -18 45 -5 14 -16 41 -22 60 -7 19 -19 49 -26 65 -53 125 -79 186 -95 221
-10 22 -27 65 -39 95 -22 55 -41 97 -101 224 -18 39 -33 72 -33 75 -3 17 -290
594 -365 735 -33 61 -75 139 -94 175 -19 36 -44 82 -56 103 -11 20 -31 54 -42
75 -12 20 -30 53 -41 72 -11 19 -30 53 -44 75 -14 22 -27 48 -31 58 -3 9 -8
17 -12 17 -4 0 -13 16 -21 35 -8 19 -17 35 -22 35 -4 0 -8 5 -8 11 0 6 -13 31
-30 56 -16 24 -30 46 -30 49 0 3 -22 39 -50 81 -27 42 -50 78 -50 80 0 2 -18
31 -40 64 -22 33 -40 63 -40 65 0 3 -4 10 -10 17 -15 18 -233 347 -245 369 -5
10 -13 18 -17 18 -5 0 -8 6 -8 13 0 7 -13 28 -30 47 -16 19 -29 41 -30 48 0 6
-3 12 -7 12 -5 0 -19 17 -33 38 -39 58 -144 206 -150 212 -3 3 -30 39 -60 80
-30 41 -58 77 -62 78 -5 2 -8 10 -8 18 0 8 -3 14 -8 14 -7 0 -112 135 -112
145 0 3 -8 13 -17 23 -10 10 -29 32 -43 50 -14 18 -36 46 -50 62 -42 48 -50
59 -50 67 0 5 -9 14 -20 21 -11 7 -20 18 -20 25 -1 6 -14 23 -30 37 -17 13
-30 30 -30 37 0 7 -5 13 -10 13 -6 0 -13 7 -17 16 -3 9 -15 26 -27 39 -37 39
-120 137 -135 158 -8 11 -27 32 -43 47 -15 15 -28 30 -28 33 0 3 -12 18 -27
34 -16 16 -55 59 -88 96 -33 38 -75 83 -92 102 -18 18 -33 36 -33 39 0 3 -26
32 -57 64 -32 32 -105 108 -163 170 -159 169 -636 642 -649 642 -4 0 -35 28
-69 63 -34 34 -86 83 -115 108 -90 80 -148 133 -184 167 -19 17 -37 32 -40 32
-2 0 -10 6 -17 13 -7 6 -37 32 -66 57 -29 25 -58 50 -64 55 -6 6 -33 28 -61
50 -27 22 -64 53 -82 70 -18 16 -59 50 -92 75 -34 24 -61 48 -61 52 0 5 -7 8
-15 8 -7 0 -18 6 -22 13 -4 7 -48 44 -98 82 -281 216 -355 272 -405 306 -30
21 -93 66 -140 100 -47 34 -146 103 -220 153 -74 50 -136 94 -138 99 -2 4 -10
7 -18 7 -8 0 -14 5 -14 10 0 6 -5 10 -11 10 -6 0 -25 11 -43 25 -18 14 -38 25
-44 25 -7 0 -12 5 -12 10 0 6 -7 10 -15 10 -9 0 -18 6 -21 14 -3 8 -19 20 -35
26 -16 7 -29 16 -29 19 0 4 -22 18 -50 30 -27 12 -50 27 -50 32 0 5 -7 9 -15
9 -8 0 -15 4 -15 9 0 5 -10 13 -22 17 -13 4 -37 17 -54 30 -17 13 -36 24 -42
24 -7 0 -12 4 -12 9 0 5 -12 14 -27 20 -16 6 -48 24 -73 39 -25 16 -97 59
-160 96 -63 37 -122 71 -130 77 -8 5 -31 17 -50 26 -19 10 -47 25 -62 35 -14
10 -50 31 -80 47 -29 15 -89 47 -133 71 -44 23 -161 84 -260 135 -99 50 -189
96 -200 102 -33 18 -200 98 -205 98 -3 1 -57 26 -120 57 -97 47 -190 88 -365
163 -16 7 -50 22 -75 33 -87 39 -242 102 -251 102 -5 0 -34 12 -66 26 -32 14
-67 29 -78 33 -11 5 -31 13 -45 19 -53 22 -167 65 -205 77 -40 13 -105 36
-265 95 -100 37 -122 44 -300 100 -74 23 -144 46 -155 50 -11 5 -67 23 -125
40 -58 16 -118 34 -135 39 -46 14 -176 51 -215 61 -19 5 -82 23 -140 39 -94
26 -163 43 -390 97 -36 9 -85 20 -110 25 -25 6 -65 15 -90 20 -25 6 -61 14
-80 19 -201 53 -892 171 -1280 219 -403 50 -773 81 -1205 101 -182 9 -1233 11
-1460 3z m1602 -1015 c15 -6 84 -15 153 -19 238 -16 565 -52 895 -99 58 -8
142 -22 255 -41 30 -5 80 -14 110 -18 85 -13 215 -39 335 -66 39 -9 89 -18
113 -22 23 -3 45 -10 48 -14 3 -5 20 -9 38 -9 18 0 46 -4 62 -9 16 -5 52 -13
79 -19 133 -28 161 -35 180 -43 11 -4 34 -10 50 -12 35 -6 146 -33 191 -47 17
-6 39 -10 50 -10 11 0 24 -4 29 -8 6 -5 37 -15 70 -22 33 -7 87 -21 119 -31
33 -11 67 -19 77 -19 10 0 21 -4 24 -10 3 -5 17 -10 31 -10 13 0 32 -4 42 -9
9 -5 46 -17 82 -27 36 -10 70 -20 75 -24 10 -6 50 -19 250 -81 97 -29 131 -42
167 -60 10 -5 27 -9 37 -9 11 0 23 -4 26 -10 3 -5 17 -10 30 -10 13 0 27 -4
30 -10 3 -5 15 -10 26 -10 10 0 28 -4 39 -10 11 -5 29 -14 40 -20 11 -5 27
-10 35 -10 8 0 23 -4 33 -9 23 -12 60 -26 102 -41 44 -15 63 -23 122 -49 26
-12 51 -21 55 -21 5 -1 26 -9 48 -20 22 -11 44 -19 48 -20 5 0 25 -7 45 -16
21 -9 46 -20 57 -24 11 -4 40 -17 65 -28 25 -11 101 -43 170 -73 186 -78 220
-94 400 -181 266 -130 499 -246 585 -293 44 -24 94 -51 110 -60 17 -8 53 -28
80 -44 28 -16 70 -40 95 -54 25 -13 74 -41 110 -62 36 -21 76 -44 90 -52 14
-8 39 -23 55 -33 17 -11 41 -25 55 -32 14 -7 57 -34 97 -60 40 -26 75 -48 78
-48 3 0 39 -22 81 -50 41 -27 77 -50 80 -50 2 0 72 -45 155 -100 83 -55 155
-100 160 -100 5 0 14 -9 21 -20 7 -11 16 -20 21 -20 4 0 13 -5 20 -10 7 -6 57
-40 112 -77 55 -36 114 -76 130 -90 17 -13 35 -27 40 -31 6 -5 17 -13 26 -18
9 -5 32 -21 50 -36 19 -14 93 -70 164 -124 72 -53 142 -106 156 -118 14 -11
40 -32 59 -46 75 -56 215 -173 218 -181 2 -5 10 -9 17 -9 8 0 20 -8 27 -18 7
-9 29 -29 48 -43 19 -15 45 -35 56 -45 12 -11 46 -39 75 -64 30 -25 66 -56 80
-70 15 -14 40 -36 56 -49 95 -82 195 -170 238 -212 28 -26 97 -92 154 -146
159 -149 498 -489 566 -567 33 -38 90 -99 128 -136 37 -37 67 -70 67 -73 0 -3
15 -20 33 -39 36 -38 90 -98 159 -179 25 -30 56 -65 68 -79 11 -14 30 -35 41
-48 10 -12 19 -25 19 -28 0 -3 11 -15 23 -27 13 -12 74 -85 135 -162 62 -77
126 -158 144 -180 18 -21 90 -116 160 -210 70 -93 131 -174 135 -180 5 -5 20
-26 33 -45 14 -19 34 -47 45 -61 11 -14 26 -35 32 -45 7 -10 37 -53 66 -94 29
-41 62 -90 72 -107 11 -18 23 -33 27 -33 4 0 8 -6 8 -13 0 -7 9 -23 20 -35 11
-12 20 -25 20 -30 0 -5 9 -17 20 -27 11 -10 20 -23 20 -30 0 -6 8 -20 18 -31
9 -10 23 -31 31 -46 8 -16 18 -28 23 -28 4 0 8 -5 8 -11 0 -6 14 -30 30 -54
17 -24 30 -46 30 -50 0 -3 18 -33 40 -65 22 -32 40 -62 40 -65 0 -3 22 -39 50
-80 27 -41 50 -76 50 -79 0 -4 14 -27 68 -111 7 -11 18 -32 25 -47 6 -16 15
-28 19 -28 4 0 8 -6 8 -14 0 -8 3 -16 8 -18 6 -3 35 -55 114 -208 13 -25 26
-47 29 -50 6 -5 25 -39 58 -105 27 -52 94 -176 106 -195 5 -8 10 -17 10 -20 0
-3 35 -75 77 -160 214 -436 248 -506 248 -518 0 -7 4 -20 9 -30 24 -45 71
-148 71 -155 0 -5 9 -29 21 -55 23 -53 35 -82 48 -114 5 -13 18 -44 30 -70 12
-26 21 -54 21 -61 0 -7 4 -17 8 -23 10 -10 57 -127 67 -164 4 -14 18 -49 31
-78 13 -29 24 -57 24 -62 0 -6 5 -19 10 -30 6 -11 15 -29 20 -40 6 -11 10 -29
10 -39 0 -11 5 -23 10 -26 6 -3 10 -17 10 -30 0 -13 5 -27 10 -30 6 -3 10 -17
10 -30 0 -13 5 -27 10 -30 6 -3 10 -14 10 -24 0 -9 9 -36 20 -59 11 -22 20
-50 20 -61 0 -11 5 -23 10 -26 6 -3 10 -15 10 -26 0 -10 4 -27 9 -37 5 -9 19
-51 31 -92 12 -41 26 -83 31 -92 5 -10 9 -27 9 -37 0 -11 5 -23 10 -26 6 -3
10 -17 10 -30 0 -13 6 -36 14 -52 19 -37 56 -163 56 -190 0 -12 4 -24 8 -27 5
-3 14 -31 21 -63 7 -32 17 -67 21 -78 10 -24 64 -235 90 -350 5 -22 13 -58 18
-80 6 -22 13 -56 17 -75 4 -19 10 -44 15 -55 5 -11 11 -36 14 -55 3 -19 9 -55
15 -80 5 -25 14 -72 21 -105 23 -117 28 -141 45 -210 16 -66 21 -91 45 -237
38 -225 50 -304 56 -368 3 -30 9 -64 14 -75 5 -11 12 -51 15 -90 3 -38 8 -101
11 -140 3 -38 10 -74 15 -79 5 -6 9 -45 9 -87 0 -43 4 -80 9 -83 4 -3 9 -46
10 -95 1 -49 6 -104 11 -123 6 -18 10 -71 10 -118 0 -47 7 -110 15 -140 13
-47 15 -200 15 -1010 0 -686 -3 -965 -11 -990 -7 -19 -15 -91 -20 -160 -11
-162 -29 -343 -59 -582 -6 -43 -14 -113 -20 -155 -14 -114 -41 -298 -60 -405
-5 -32 -14 -82 -19 -110 -5 -29 -14 -82 -20 -118 -6 -36 -18 -94 -27 -130 -8
-36 -17 -81 -20 -100 -3 -19 -9 -44 -14 -55 -5 -11 -11 -38 -14 -60 -14 -102
-19 -126 -27 -131 -5 -3 -9 -18 -9 -34 0 -16 -7 -55 -16 -87 -8 -32 -17 -69
-20 -83 -12 -65 -27 -127 -35 -142 -5 -10 -9 -29 -9 -43 0 -14 -4 -33 -9 -43
-5 -9 -19 -60 -31 -112 -12 -52 -25 -104 -30 -115 -4 -11 -14 -46 -21 -78 -7
-32 -16 -60 -21 -63 -4 -3 -8 -15 -8 -27 0 -30 -48 -189 -60 -201 -6 -6 -10
-20 -10 -33 0 -12 -5 -35 -11 -50 -24 -60 -28 -70 -40 -118 -6 -27 -16 -54
-20 -59 -5 -6 -9 -18 -9 -28 0 -10 -4 -26 -9 -36 -5 -9 -14 -35 -20 -57 -13
-41 -26 -76 -42 -107 -5 -10 -9 -27 -9 -37 0 -11 -5 -23 -10 -26 -5 -3 -10
-17 -10 -30 0 -13 -4 -27 -10 -30 -5 -3 -10 -17 -10 -30 0 -13 -4 -27 -10 -30
-5 -3 -10 -15 -10 -26 0 -10 -4 -27 -9 -37 -15 -30 -30 -66 -45 -112 -8 -25
-21 -58 -30 -75 -9 -16 -16 -36 -16 -43 0 -8 -7 -28 -16 -45 -29 -56 -34 -67
-34 -77 0 -5 -11 -34 -25 -64 -14 -30 -25 -58 -25 -61 0 -4 -7 -23 -16 -43 -9
-21 -19 -46 -24 -57 -4 -11 -17 -40 -29 -63 -11 -24 -21 -49 -21 -56 0 -7 -13
-39 -30 -71 -16 -32 -30 -62 -30 -67 0 -4 -11 -32 -25 -62 -14 -30 -25 -61
-25 -70 0 -8 -4 -16 -8 -18 -5 -2 -37 -61 -71 -133 -137 -282 -305 -612 -374
-735 -35 -62 -83 -150 -113 -210 -19 -36 -38 -72 -44 -80 -23 -35 -80 -133
-80 -139 0 -4 -8 -16 -18 -27 -10 -10 -25 -34 -32 -51 -8 -18 -18 -33 -22 -33
-5 0 -8 -7 -8 -15 0 -8 -4 -15 -10 -15 -5 0 -10 -5 -10 -11 0 -6 -10 -25 -23
-42 -13 -18 -32 -49 -42 -69 -11 -21 -23 -38 -27 -38 -5 0 -8 -7 -8 -15 0 -8
-4 -15 -10 -15 -5 0 -10 -6 -10 -13 0 -7 -16 -36 -35 -64 -19 -29 -35 -56 -35
-61 0 -5 -9 -17 -20 -27 -11 -10 -20 -24 -20 -30 0 -7 -7 -19 -16 -26 -9 -7
-20 -22 -25 -34 -5 -11 -25 -40 -43 -65 -19 -25 -35 -50 -35 -57 -1 -6 -9 -18
-19 -25 -10 -7 -25 -25 -33 -40 -17 -31 -91 -141 -100 -148 -3 -3 -14 -20 -23
-38 -9 -17 -20 -32 -24 -32 -4 0 -18 -18 -32 -40 -14 -22 -28 -40 -32 -40 -5
0 -8 -7 -8 -15 0 -8 -3 -15 -8 -15 -4 0 -12 -9 -17 -19 -13 -25 -170 -234
-302 -401 -102 -129 -116 -146 -163 -197 -11 -13 -20 -26 -20 -31 0 -4 -12
-21 -27 -38 -16 -16 -53 -59 -82 -95 -30 -35 -67 -75 -81 -89 -15 -14 -31 -33
-36 -42 -13 -24 -156 -186 -276 -312 -37 -39 -91 -98 -120 -131 -136 -153
-688 -690 -841 -819 -26 -21 -59 -50 -75 -65 -15 -14 -54 -48 -85 -76 -32 -27
-73 -63 -90 -78 -44 -39 -55 -48 -112 -93 -27 -21 -52 -42 -55 -45 -9 -11
-129 -109 -134 -109 -6 0 -54 -41 -79 -67 -11 -13 -25 -23 -30 -23 -5 0 -17
-8 -26 -18 -17 -19 -426 -327 -476 -358 -16 -10 -34 -24 -40 -30 -15 -17 -144
-104 -154 -104 -5 0 -11 -3 -13 -7 -1 -5 -30 -26 -63 -48 -33 -22 -66 -46 -73
-52 -7 -7 -17 -13 -22 -13 -5 0 -15 -6 -22 -13 -7 -7 -38 -28 -68 -47 -30 -19
-56 -38 -58 -42 -2 -5 -10 -8 -17 -8 -7 0 -15 -3 -17 -7 -4 -11 -85 -63 -97
-63 -5 0 -16 -6 -23 -13 -20 -19 -131 -89 -195 -123 -18 -10 -33 -21 -33 -26
0 -4 -5 -8 -10 -8 -6 0 -34 -15 -63 -34 -56 -36 -115 -71 -187 -109 -65 -34
-94 -51 -100 -58 -3 -3 -34 -21 -70 -40 -36 -18 -67 -36 -70 -39 -3 -3 -25
-16 -50 -29 -25 -13 -97 -50 -160 -84 -266 -140 -756 -377 -900 -435 -14 -6
-55 -24 -92 -41 -37 -17 -71 -31 -76 -31 -6 0 -30 -10 -54 -21 -23 -12 -54
-26 -68 -32 -14 -5 -36 -14 -50 -20 -14 -5 -34 -13 -45 -17 -11 -5 -36 -15
-57 -24 -20 -9 -39 -16 -42 -16 -3 0 -28 -9 -54 -21 -26 -12 -56 -25 -67 -30
-11 -4 -72 -27 -135 -49 -63 -23 -124 -45 -135 -50 -11 -5 -38 -14 -60 -21
-22 -6 -48 -15 -57 -20 -10 -5 -26 -9 -36 -9 -10 0 -22 -4 -27 -9 -8 -7 -74
-32 -95 -36 -11 -2 -56 -17 -75 -24 -11 -5 -40 -14 -65 -21 -25 -7 -54 -16
-65 -20 -64 -25 -305 -100 -323 -100 -11 0 -24 -4 -27 -10 -3 -5 -17 -10 -31
-10 -13 0 -32 -4 -42 -9 -19 -11 -131 -41 -180 -48 -18 -3 -35 -9 -38 -14 -3
-5 -20 -9 -39 -9 -19 0 -36 -4 -39 -9 -6 -8 -31 -14 -119 -27 -20 -4 -40 -10
-43 -15 -3 -5 -18 -9 -35 -9 -16 0 -37 -4 -47 -9 -23 -12 -107 -31 -135 -31
-13 0 -27 -4 -32 -9 -6 -5 -28 -11 -50 -14 -38 -5 -90 -16 -180 -36 -22 -5
-76 -17 -120 -26 -44 -9 -100 -21 -125 -27 -25 -5 -63 -12 -85 -14 -22 -3 -49
-9 -60 -14 -11 -5 -42 -11 -70 -14 -118 -13 -151 -18 -170 -26 -11 -5 -45 -11
-75 -15 -52 -6 -83 -10 -262 -35 -40 -6 -104 -13 -143 -16 -38 -3 -79 -9 -90
-14 -11 -5 -60 -12 -110 -15 -49 -3 -128 -10 -175 -15 -47 -5 -143 -13 -215
-18 -71 -6 -146 -15 -165 -21 -52 -16 -1953 -15 -1983 1 -12 7 -78 16 -147 20
-200 12 -451 39 -747 78 -43 6 -105 13 -138 16 -33 3 -69 9 -80 14 -11 5 -42
11 -70 14 -27 3 -76 9 -108 12 -31 4 -60 10 -63 15 -3 5 -29 9 -58 9 -28 0
-56 4 -61 9 -6 5 -30 11 -55 14 -59 7 -103 16 -330 67 -25 6 -67 15 -95 20
-27 5 -68 14 -90 19 -22 5 -65 14 -95 21 -30 7 -71 16 -90 21 -19 4 -48 11
-65 14 -16 4 -39 10 -50 15 -11 5 -33 11 -50 14 -16 2 -48 9 -70 15 -22 6 -53
13 -70 16 -16 4 -39 10 -50 15 -11 5 -31 11 -45 14 -14 2 -43 10 -65 16 -22 7
-55 14 -73 17 -18 3 -35 9 -38 14 -3 5 -16 9 -29 9 -13 0 -34 4 -47 9 -13 5
-63 21 -113 35 -49 15 -98 31 -107 36 -10 6 -25 10 -33 10 -8 0 -23 4 -33 9
-9 5 -35 14 -57 20 -22 7 -49 16 -60 21 -11 4 -54 18 -95 30 -41 12 -85 25
-97 31 -50 20 -70 27 -113 40 -25 7 -49 16 -55 21 -5 4 -17 8 -27 8 -10 0 -27
5 -38 10 -11 6 -29 14 -40 20 -11 5 -27 10 -35 10 -8 0 -24 5 -35 10 -11 6
-29 15 -40 20 -11 6 -27 10 -35 10 -8 0 -23 4 -33 9 -18 9 -63 28 -97 41 -11
5 -36 15 -55 23 -19 8 -78 31 -130 52 -52 20 -120 48 -150 62 -30 13 -64 28
-75 33 -43 17 -101 43 -129 56 -16 8 -32 14 -37 14 -11 0 -163 71 -349 163
-91 45 -168 82 -172 82 -4 0 -13 6 -19 12 -7 7 -18 13 -25 13 -11 0 -63 26
-315 158 -139 72 -162 85 -169 93 -3 4 -30 18 -60 33 -30 15 -72 36 -92 49
-21 12 -66 37 -100 56 -35 19 -74 42 -87 52 -13 11 -30 19 -37 19 -8 0 -14 5
-14 10 0 6 -6 10 -12 10 -7 0 -62 32 -121 70 -60 39 -110 70 -113 70 -3 0 -38
23 -79 50 -41 28 -77 50 -80 50 -10 0 -400 263 -403 272 -2 4 -10 8 -17 8 -7
0 -15 4 -17 8 -1 4 -38 30 -82 57 -43 28 -81 56 -83 62 -3 7 -9 13 -14 13 -9
0 -66 37 -79 50 -3 3 -86 66 -185 140 -99 74 -185 139 -191 145 -6 5 -23 19
-38 30 -38 27 -84 65 -113 92 -13 13 -26 23 -29 23 -3 0 -11 6 -18 12 -7 7
-30 27 -51 43 -21 17 -57 46 -80 65 -23 19 -61 51 -85 70 -48 38 -112 94 -145
125 -12 11 -71 63 -131 115 -60 52 -140 125 -177 162 -38 37 -71 68 -74 68
-16 0 -673 656 -673 673 0 3 -35 40 -78 84 -65 67 -139 148 -225 247 -10 12
-31 36 -45 55 -15 19 -38 46 -52 60 -15 14 -43 48 -65 74 -21 26 -56 67 -77
90 -21 23 -38 45 -38 48 0 3 -10 17 -22 31 -13 13 -34 39 -48 58 -14 18 -31
39 -37 46 -7 7 -13 16 -13 21 0 4 -11 17 -25 27 -14 10 -25 22 -25 27 0 4 -11
20 -24 34 -28 30 -47 55 -234 307 -73 97 -132 179 -132 182 0 2 -14 20 -30 38
-17 18 -30 38 -30 44 0 7 -3 14 -8 16 -7 3 -75 100 -98 140 -6 10 -21 30 -33
44 -11 13 -21 26 -21 29 0 8 -64 100 -72 103 -4 2 -8 9 -8 16 0 7 -9 21 -20
31 -11 10 -20 22 -20 26 0 6 -34 61 -80 129 -12 17 -74 121 -100 165 -9 17
-37 62 -62 100 -25 39 -60 95 -77 125 -18 30 -36 62 -41 70 -14 23 -100 173
-109 190 -9 17 -43 78 -91 165 -113 201 -444 866 -488 980 -11 28 -34 80 -51
116 -17 36 -31 73 -31 82 0 9 -4 18 -9 21 -4 3 -23 43 -41 88 -17 46 -37 97
-44 113 -7 17 -25 62 -41 100 -15 39 -33 81 -39 95 -7 14 -19 45 -26 70 -8 25
-21 59 -30 75 -9 17 -22 50 -30 75 -7 25 -17 49 -22 55 -4 5 -8 19 -8 31 0 13
-4 26 -10 29 -5 3 -10 16 -10 29 0 12 -4 26 -8 31 -5 6 -14 30 -22 55 -7 25
-21 64 -31 87 -11 24 -19 51 -19 61 0 10 -4 22 -8 27 -5 6 -14 30 -21 55 -7
25 -17 54 -22 65 -4 11 -13 40 -20 65 -11 44 -16 58 -38 113 -6 15 -11 38 -11
50 0 13 -4 27 -10 33 -12 12 -60 171 -60 201 0 12 -4 24 -8 27 -5 3 -14 31
-21 63 -7 32 -17 67 -21 78 -5 11 -19 63 -31 115 -12 52 -25 104 -29 115 -5
11 -11 34 -15 50 -3 17 -10 48 -16 70 -5 22 -13 60 -18 85 -5 25 -16 71 -25
103 -9 32 -16 71 -16 87 0 16 -4 31 -9 34 -4 3 -11 25 -14 48 -8 55 -22 125
-43 213 -24 103 -48 226 -65 330 -5 33 -14 87 -20 120 -5 33 -13 85 -15 115
-3 30 -10 59 -15 65 -5 5 -9 37 -9 71 0 35 -5 66 -10 69 -6 3 -10 37 -10 75 0
38 -4 72 -10 75 -5 3 -10 39 -10 79 0 39 -4 76 -9 81 -5 6 -12 46 -15 90 -3
44 -10 127 -16 185 -5 58 -14 161 -19 230 -5 69 -14 141 -20 160 -16 51 -16
1953 1 1983 6 12 15 78 20 147 4 69 12 175 18 235 6 61 13 146 16 190 3 44 10
84 15 90 5 5 9 41 9 80 0 39 4 75 9 81 5 5 12 41 15 79 7 87 30 251 56 400 6
33 15 87 21 120 10 62 20 119 38 217 6 31 16 69 21 83 6 15 10 39 10 54 0 15
4 31 9 37 8 8 11 23 27 134 3 25 10 49 15 55 5 5 9 26 9 47 0 21 4 46 9 56 5
9 14 41 20 70 6 28 16 76 22 105 6 28 15 60 20 69 5 10 9 31 9 47 0 17 4 32 9
35 8 5 12 20 27 114 4 20 10 42 14 47 3 6 12 37 19 70 7 33 17 68 22 77 5 10
9 27 9 37 0 11 4 23 10 26 5 3 10 17 10 30 0 13 4 34 9 47 5 13 14 43 21 68 7
25 19 59 26 77 8 17 14 35 14 40 0 11 37 129 49 158 5 11 15 43 22 70 6 28 16
54 20 60 5 5 9 19 9 31 0 13 4 25 9 28 5 3 11 18 14 33 4 22 51 161 90 263 3
8 8 24 10 35 3 11 19 54 35 95 17 41 40 100 51 130 12 30 26 65 31 78 15 33
25 60 51 127 12 33 35 88 51 123 15 34 28 67 28 72 0 5 9 25 20 45 11 20 20
42 20 50 0 8 13 41 29 72 25 49 36 74 46 103 21 60 359 748 429 875 13 22 37
67 56 100 18 33 44 80 58 105 14 25 37 68 52 95 14 28 34 62 44 77 10 15 27
45 39 67 28 52 111 189 267 441 29 47 59 96 66 109 7 13 17 27 22 30 5 3 15
18 23 33 8 15 55 86 104 158 50 72 97 141 105 154 30 45 75 111 80 116 3 3 10
12 15 21 10 16 85 118 124 169 10 14 51 68 89 120 39 52 76 100 81 107 6 7 11
15 11 18 0 5 34 47 66 81 12 12 24 29 27 38 4 9 11 16 17 16 5 0 10 5 10 11 0
6 9 21 20 33 20 22 105 126 155 191 17 21 44 55 61 74 17 20 42 49 55 65 13
16 33 38 44 50 11 12 40 46 65 76 25 30 49 60 55 66 5 6 39 44 75 84 36 40 92
102 125 136 33 35 89 96 125 136 84 94 455 465 588 588 57 52 127 119 157 148
29 28 56 52 59 52 3 0 19 14 34 30 16 17 32 30 34 30 3 0 23 17 44 38 22 20
70 64 108 97 38 33 74 65 80 70 6 6 40 34 76 63 36 30 85 70 109 90 24 20 51
41 60 46 9 5 21 15 26 21 8 10 144 121 180 148 15 11 138 105 150 115 6 4 64
48 130 97 66 49 125 93 130 97 6 5 42 31 80 58 39 27 75 53 80 58 31 24 107
72 116 72 5 0 9 3 9 8 0 4 23 20 50 37 28 16 50 32 50 36 0 4 9 11 20 14 11 3
26 12 32 18 16 15 246 167 253 167 9 0 90 54 93 63 2 4 10 7 18 7 8 0 14 4 14
9 0 5 10 13 22 17 26 8 101 55 106 67 2 4 7 7 12 7 7 0 144 80 190 110 8 6 29
17 45 25 17 8 53 29 80 45 28 17 61 36 75 43 14 6 27 14 30 17 3 4 28 18 55
31 28 14 68 36 90 49 173 102 1026 520 1061 520 4 0 28 9 53 21 25 11 55 24
66 29 11 4 46 20 78 34 32 14 60 26 63 26 3 0 21 7 40 15 19 8 49 22 68 30 19
8 38 15 42 15 4 0 26 8 48 19 71 32 109 48 161 66 58 20 93 34 117 46 10 5 25
9 33 9 8 0 23 4 33 9 35 18 68 30 112 42 25 7 49 16 55 21 5 4 17 8 27 8 10 0
27 5 38 10 11 6 29 15 40 20 11 6 28 10 38 10 10 0 22 4 27 9 6 4 33 14 60 20
28 7 59 17 70 21 11 5 38 14 60 20 22 6 49 15 60 19 37 15 89 32 155 53 104
32 133 40 168 45 18 3 35 9 38 14 3 5 18 9 34 9 16 0 32 5 35 10 3 6 19 10 36
10 16 0 37 4 47 9 17 10 112 36 187 51 22 5 58 14 80 20 67 19 144 38 245 60
30 7 73 16 95 21 22 5 58 12 80 15 22 3 49 9 60 14 11 5 36 11 55 14 19 2 64
11 100 19 210 47 336 70 450 83 25 3 54 9 65 14 11 5 43 11 70 14 28 3 82 10
120 16 39 5 106 15 150 20 44 6 114 15 155 20 174 23 411 46 580 58 74 5 146
14 160 20 37 16 1939 16 1977 0z"/>
<path d="M3325 21591 c-89 -20 -215 -68 -215 -82 0 -5 -5 -9 -11 -9 -20 0
-159 -121 -159 -139 0 -4 -9 -16 -19 -25 -11 -10 -27 -32 -36 -49 -8 -18 -19
-39 -24 -47 -28 -52 -36 -71 -56 -135 -53 -166 -50 96 -50 -4400 0 -4351 -1
-4267 40 -4585 24 -183 76 -455 114 -595 39 -144 62 -221 70 -240 5 -11 15
-40 22 -65 7 -25 15 -49 19 -55 3 -5 12 -28 19 -50 7 -22 17 -50 22 -62 5 -13
13 -33 18 -45 5 -13 16 -39 24 -58 8 -19 21 -50 28 -69 17 -43 167 -342 197
-393 12 -21 32 -55 43 -75 12 -21 52 -85 90 -142 38 -57 69 -107 69 -111 0 -5
3 -10 8 -12 4 -2 33 -39 66 -82 57 -76 87 -115 114 -142 6 -7 12 -15 12 -18 0
-3 12 -19 28 -35 15 -16 47 -51 70 -78 112 -123 263 -271 376 -364 15 -13 41
-35 57 -49 15 -14 43 -36 60 -50 18 -14 38 -31 45 -38 7 -6 17 -12 23 -12 6 0
11 -3 11 -7 0 -5 25 -24 55 -43 30 -19 55 -38 55 -42 0 -5 7 -8 15 -8 8 0 15
-4 15 -10 0 -5 5 -10 10 -10 12 0 73 -41 78 -52 2 -5 10 -8 18 -8 8 0 14 -4
14 -8 0 -5 21 -19 46 -33 25 -13 53 -29 62 -34 97 -59 165 -95 333 -178 108
-53 202 -97 208 -97 6 0 19 -4 29 -10 22 -12 71 -32 147 -60 33 -12 69 -26 80
-30 29 -13 221 -76 285 -94 30 -8 87 -25 126 -36 290 -83 707 -152 1154 -192
229 -20 944 -17 1145 5 445 49 884 142 1155 244 8 3 20 7 27 8 6 2 55 20 110
40 54 21 118 45 143 55 47 17 73 29 200 87 132 61 316 155 390 201 19 12 42
25 50 29 8 3 41 24 73 45 32 21 63 38 68 38 5 0 9 5 9 10 0 6 5 10 10 10 10 0
90 49 100 61 3 3 30 23 60 44 30 21 105 76 165 124 141 110 131 102 165 133
15 16 30 28 32 28 18 0 448 432 448 451 0 4 6 12 13 16 6 4 34 35 62 68 27 33
52 62 55 65 3 3 18 23 35 45 16 22 33 45 37 50 5 6 26 35 48 65 22 30 43 60
47 65 5 6 23 33 40 60 18 28 36 55 41 60 7 9 45 69 67 107 6 9 26 43 45 75 56
93 86 150 151 283 33 69 65 134 71 144 6 11 23 51 40 90 193 466 300 925 327
1416 15 257 15 7878 0 8045 -16 191 -48 313 -116 454 -44 90 -101 183 -120
194 -7 4 -13 12 -13 16 0 5 -26 34 -57 66 -127 128 -276 210 -443 245 -54 12
-323 10 -365 -2 -11 -4 -33 -9 -50 -13 -90 -20 -292 -112 -303 -137 -2 -5 -10
-8 -18 -8 -8 0 -14 -4 -14 -9 0 -5 -8 -12 -17 -15 -33 -11 -182 -151 -267
-250 l-49 -57 -72 73 c-39 40 -93 91 -120 113 -28 21 -52 42 -55 45 -5 6 -69
49 -115 77 -119 73 -275 128 -410 144 -200 25 -410 -25 -570 -134 -51 -35
-128 -101 -149 -126 -11 -13 -35 -40 -53 -60 -18 -20 -33 -39 -33 -43 0 -4 -6
-13 -13 -20 -31 -32 -133 -220 -142 -262 -1 -6 -8 -24 -14 -41 -39 -93 -66
-208 -85 -370 -13 -110 -17 -424 -26 -2015 -18 -3207 -29 -4967 -35 -5165 -4
-160 -25 -352 -49 -440 -1 -5 -8 -30 -14 -55 -13 -51 -40 -135 -52 -165 -28
-72 -89 -197 -112 -231 -15 -23 -28 -47 -28 -53 0 -6 -4 -11 -8 -11 -4 0 -16
-14 -26 -31 -10 -16 -31 -44 -47 -60 -16 -16 -29 -33 -29 -37 0 -6 -60 -64
-119 -115 -45 -38 -116 -87 -127 -87 -7 0 -14 -3 -16 -7 -5 -12 -129 -72 -183
-89 -164 -53 -322 -64 -495 -35 -163 26 -242 51 -370 116 -89 44 -108 56 -120
70 -7 8 -17 15 -23 15 -13 0 -23 9 -132 116 -77 75 -175 200 -175 222 0 6 -3
12 -7 14 -13 5 -76 141 -111 238 -44 126 -74 269 -93 445 -14 130 -9 1098 23
4905 11 1400 22 2615 22 2700 1 180 -13 250 -75 368 -108 206 -275 323 -544
382 -87 19 -331 16 -430 -5 -159 -34 -319 -97 -424 -169 -29 -20 -56 -36 -60
-36 -4 0 -14 -8 -23 -17 -9 -10 -29 -29 -44 -41 -47 -39 -154 -143 -154 -150
0 -4 -14 -23 -31 -42 -17 -19 -38 -46 -46 -61 l-16 -27 -38 52 c-21 28 -45 58
-53 67 -9 9 -16 18 -16 21 0 7 -190 198 -197 198 -2 0 -14 9 -26 20 -86 81
-287 195 -457 259 -169 64 -432 88 -585 52z"/>
<path d="M16295 21460 c-181 -24 -360 -100 -457 -192 -10 -10 -22 -18 -26 -18
-5 0 -23 -20 -41 -46 l-33 -45 -31 26 c-140 114 -229 164 -372 213 -121 41
-171 47 -370 46 -143 0 -184 -4 -255 -23 -96 -25 -169 -50 -187 -64 -7 -5 -13
-7 -13 -3 0 10 -122 -55 -195 -105 -63 -43 -83 -58 -150 -118 -82 -73 -172
-211 -216 -331 -22 -59 -24 -80 -23 -225 1 -116 8 -210 28 -345 15 -102 31
-216 36 -255 5 -38 11 -86 14 -105 3 -19 15 -100 26 -180 30 -217 285 -2005
331 -2315 21 -148 52 -362 69 -475 16 -113 48 -329 70 -480 22 -151 49 -336
60 -410 24 -168 110 -745 185 -1250 14 -96 46 -310 70 -475 25 -165 56 -376
70 -470 26 -172 74 -488 120 -800 30 -203 94 -620 100 -655 2 -14 18 -117 35
-230 16 -113 34 -232 40 -265 5 -33 19 -121 30 -195 11 -74 25 -163 30 -197 6
-35 15 -92 20 -128 6 -36 14 -93 20 -127 5 -35 19 -124 31 -198 68 -440 119
-766 180 -1137 39 -246 51 -295 106 -463 48 -147 163 -354 242 -437 17 -18 31
-34 31 -38 0 -3 14 -18 31 -33 17 -15 42 -37 54 -48 13 -12 38 -32 57 -45 18
-13 35 -26 38 -29 3 -3 16 -12 30 -20 292 -169 605 -196 959 -81 62 21 251
107 261 120 3 4 29 22 59 41 58 36 55 37 89 -16 18 -27 155 -124 222 -157 140
-68 267 -96 427 -97 276 0 528 94 741 280 30 26 142 166 142 178 0 5 4 12 8
14 19 7 114 231 136 323 2 6 6 17 9 25 3 8 38 110 76 225 39 116 90 266 114
335 24 69 44 127 44 130 4 12 16 47 23 65 11 25 81 228 121 350 16 50 34 99
39 110 6 11 24 61 40 110 69 203 90 265 125 365 20 58 43 119 50 135 7 17 18
46 23 65 6 19 31 94 57 165 25 72 55 157 66 190 11 33 24 69 29 80 5 11 18 49
30 85 12 36 25 74 30 85 12 28 69 191 86 245 8 25 18 54 24 65 8 18 67 184 74
210 2 6 6 17 9 25 7 18 42 115 63 180 9 25 21 59 29 75 7 17 18 50 25 74 6 24
16 51 20 60 5 9 16 36 24 61 8 25 29 83 46 130 17 47 40 112 50 145 11 33 25
69 30 80 5 11 19 47 29 80 11 33 29 84 40 113 12 28 21 55 22 60 0 4 7 22 15
40 7 19 19 52 25 74 6 22 14 48 19 57 12 22 78 209 86 245 l7 29 14 -26 c7
-15 27 -66 44 -114 16 -49 34 -97 39 -108 6 -11 16 -40 24 -65 8 -25 26 -76
41 -115 14 -38 40 -108 56 -155 16 -47 34 -94 39 -105 5 -11 18 -47 29 -80 11
-33 32 -91 47 -130 14 -38 32 -88 39 -110 8 -22 28 -78 45 -125 18 -47 36 -96
40 -110 5 -14 20 -56 35 -95 14 -38 33 -90 41 -115 8 -25 19 -54 24 -65 5 -11
16 -42 25 -69 9 -27 19 -54 23 -60 3 -6 8 -19 9 -30 2 -10 9 -33 17 -50 7 -17
19 -47 26 -66 7 -19 16 -44 20 -55 4 -11 13 -36 20 -55 7 -19 16 -44 20 -55
11 -25 42 -113 81 -225 16 -47 32 -92 36 -100 3 -8 7 -19 8 -25 2 -5 13 -35
25 -65 12 -30 28 -73 35 -95 7 -22 27 -78 45 -125 17 -47 36 -96 40 -110 5
-14 23 -63 40 -110 17 -47 38 -105 46 -130 9 -25 24 -67 34 -95 10 -27 28 -76
39 -107 35 -98 63 -172 71 -193 4 -11 13 -33 18 -50 15 -42 118 -329 138 -380
4 -11 8 -22 8 -25 1 -3 6 -18 13 -35 13 -37 47 -127 112 -307 11 -29 22 -62
27 -73 4 -11 8 -24 10 -30 5 -16 45 -128 54 -150 4 -11 13 -36 20 -55 7 -19
16 -44 20 -55 4 -11 14 -36 20 -55 27 -74 116 -248 167 -326 56 -85 184 -221
268 -285 103 -78 256 -144 393 -170 79 -15 337 -6 407 15 127 36 301 126 376
195 9 9 33 31 53 49 20 18 36 37 36 42 0 5 6 13 13 17 17 10 97 117 97 129 0
5 6 17 14 26 11 15 15 11 40 -36 31 -59 52 -86 128 -165 50 -51 167 -141 183
-141 5 0 16 -7 26 -16 18 -16 219 -96 219 -87 0 3 6 1 13 -5 30 -25 208 -44
362 -39 159 6 228 20 336 70 65 30 161 93 172 113 4 8 15 14 22 14 8 0 15 3
15 8 0 4 18 29 40 56 41 50 87 137 114 216 12 35 110 608 269 1575 3 17 14 84
26 150 42 247 307 1826 421 2510 66 391 148 883 184 1095 36 212 106 628 156
925 85 506 161 957 265 1570 24 143 57 339 74 435 30 172 102 598 200 1180 28
162 57 333 66 380 27 153 64 364 69 400 3 19 12 76 21 125 9 50 29 167 46 260
58 332 68 390 79 425 17 58 24 238 11 330 -27 201 -108 365 -251 507 -238 238
-588 333 -925 252 -98 -23 -221 -73 -300 -122 -48 -29 -171 -123 -183 -139
-18 -25 -25 -23 -40 12 -19 43 -108 155 -173 218 -200 195 -489 298 -779 278
-152 -11 -258 -39 -398 -108 -126 -61 -247 -158 -325 -261 -12 -16 -26 -34
-32 -41 -32 -38 -97 -171 -124 -251 -11 -33 -28 -100 -36 -150 -55 -312 -130
-774 -220 -1355 -8 -52 -24 -151 -35 -220 -11 -69 -31 -199 -44 -290 -14 -91
-34 -226 -46 -300 -11 -74 -22 -148 -24 -165 -3 -16 -18 -120 -35 -230 -17
-110 -49 -324 -71 -475 -23 -151 -47 -315 -55 -365 -7 -49 -26 -174 -41 -278
l-27 -187 -199 597 c-110 328 -202 601 -206 607 -3 6 -8 19 -9 29 -2 10 -10
31 -18 48 -9 16 -14 29 -11 29 2 0 -18 64 -45 143 -28 78 -63 180 -79 227 -16
47 -52 150 -80 230 -28 80 -58 165 -66 190 -9 25 -22 59 -30 77 -8 17 -14 36
-14 42 0 10 -37 112 -65 176 -7 17 -16 45 -20 62 -3 18 -11 35 -16 38 -5 4 -9
14 -9 23 0 9 -7 30 -15 46 -8 15 -15 33 -15 39 0 5 -9 28 -19 51 -73 154 -93
195 -112 226 -40 66 -126 175 -190 239 -66 67 -213 181 -232 181 -6 0 -18 6
-26 14 -30 26 -196 86 -296 107 -86 18 -123 20 -270 16 -179 -6 -236 -16 -370
-67 -72 -27 -164 -78 -216 -120 -21 -16 -40 -30 -43 -30 -9 0 -86 -84 -86 -92
0 -7 -31 18 -85 70 -13 12 -27 22 -31 22 -4 0 -16 7 -26 17 -21 19 -39 29
-128 73 -36 17 -72 35 -80 39 -52 27 -248 60 -352 61 -252 1 -535 -107 -733
-280 -46 -41 -185 -181 -200 -202 -5 -8 -32 -45 -60 -81 -61 -81 -83 -119
-130 -217 -45 -93 -48 -99 -81 -185 -83 -221 -102 -267 -126 -320 -5 -12 -10
-27 -12 -35 -3 -15 -20 -60 -35 -95 -5 -11 -30 -74 -55 -140 -26 -66 -53 -135
-61 -153 -8 -18 -15 -37 -15 -43 0 -6 -8 -29 -18 -52 -11 -23 -29 -69 -42
-102 -12 -33 -29 -75 -37 -93 -8 -18 -16 -41 -18 -52 -2 -11 -11 -34 -19 -52
-14 -31 -86 -214 -158 -403 -84 -219 -100 -262 -109 -280 -4 -11 -20 -51 -34
-90 -14 -38 -30 -80 -35 -92 -19 -44 -29 -68 -38 -98 -8 -28 -10 -25 -20 40
-7 39 -25 171 -42 295 -17 124 -39 286 -50 360 -34 245 -59 422 -95 685 -19
143 -46 337 -60 430 -13 94 -36 256 -50 360 -14 105 -34 251 -45 325 -11 74
-38 268 -60 430 -41 299 -62 447 -81 577 -13 91 -82 283 -101 283 -5 0 -8 6
-8 13 0 17 -79 120 -143 186 -60 62 -104 100 -156 134 -19 12 -46 30 -60 39
-32 21 -192 100 -246 121 -56 22 -169 54 -236 66 -85 15 -295 21 -374 11z"/>
</g>
</svg>
